<?xml version="1.0" encoding="UTF-8"?> <svg xmlns="http://www.w3.org/2000/svg" xmlns:xlink="http://www.w3.org/1999/xlink" width="234.866" height="102.969" viewBox="0 0 234.866 102.969"><defs><clipPath id="a"><path d="M236.54,160.06a4.56,4.56,0,1,0-4.57,4.73,4.46,4.46,0,0,0,4.57-4.73Zm4.25,0c0,5-3.62,8.85-8,8.85a6.36,6.36,0,0,1-5.33-2.45v2h-4.24V145h4.24v8.68a6.35,6.35,0,0,1,5.33-2.44C237.17,151.22,240.79,155.07,240.79,160.06Z" transform="translate(-145 -61)" fill="none"></path></clipPath><clipPath id="b"><rect width="1600" height="14930" transform="translate(-145 -61)" fill="none"></rect></clipPath><clipPath id="c"><path d="M252.92,151.35v4.82c-2.2-.26-5,.74-5,4.26v8h-4.24V151.68h4.24v2.89a5.06,5.06,0,0,1,5-3.22Z" transform="translate(-145 -61)" fill="none"></path></clipPath><clipPath id="e"><path d="M267.16,160.06a4.56,4.56,0,1,0-4.57,4.73,4.46,4.46,0,0,0,4.57-4.73Zm4.24-8.38v16.76h-4.24v-2a6.49,6.49,0,0,1-5.36,2.45c-4.37,0-8-3.85-8-8.85s3.62-8.84,8-8.84a6.48,6.48,0,0,1,5.36,2.44v-2Z" transform="translate(-145 -61)" fill="none"></path></clipPath><clipPath id="g"><path d="M275.15,151.68h4.24v16.76h-4.24Zm-.49-4.65a2.656,2.656,0,1,0,0-.03Z" transform="translate(-145 -61)" fill="none"></path></clipPath><clipPath id="i"><path d="M298.54,158.15v10.29h-4.25v-9.75c0-2.28-1.35-3.45-3.25-3.45-2.08,0-3.62,1.24-3.62,4.15v9.05h-4.24V151.68h4.24v1.88a5.55,5.55,0,0,1,4.9-2.34C295.8,151.22,298.54,153.7,298.54,158.15Z" transform="translate(-145 -61)" fill="none"></path></clipPath><clipPath id="k"><path d="M307.41,151.52v.16h3.49v4.16h-3.49v12.6h-4.24v-12.6H300.8v-4.16h2.37v-.16c0-4.63,2.5-7.34,7.73-7v4.16C308.7,148.5,307.41,149.24,307.41,151.52Z" transform="translate(-145 -61)" fill="none"></path></clipPath><clipPath id="m"><path d="M324.42,160.06a4.42,4.42,0,1,0-1.239,3.284A4.46,4.46,0,0,0,324.42,160.06Zm-13.16,0a8.67,8.67,0,1,1,2.478,6.251A8.7,8.7,0,0,1,311.26,160.06Z" transform="translate(-145 -61)" fill="none"></path></clipPath><clipPath id="o"><path d="M340.79,151.35v4.82c-2.2-.26-5,.74-5,4.26v8h-4.25V151.68h4.25v2.89a5,5,0,0,1,5-3.22Z" transform="translate(-145 -61)" fill="none"></path></clipPath><clipPath id="q"><path d="M354.44,158.49a4,4,0,0,0-4.08-3.39,4.11,4.11,0,0,0-4.3,3.39Zm-3.68,6.5a4.53,4.53,0,0,0,3.68-1.68l3.42,2a8.26,8.26,0,0,1-7.17,3.59c-5.52,0-9-3.85-9-8.85a8.47,8.47,0,0,1,8.68-8.84c4.87,0,8.32,3.92,8.32,8.84a10.071,10.071,0,0,1-.16,1.78h-12.4c.58,2.22,2.39,3.17,4.63,3.17Z" transform="translate(-145 -61)" fill="none"></path></clipPath><clipPath id="s"><path d="M373.29,163.55c0,3.62-3.09,5.36-6.61,5.36-3.29,0-5.73-1.41-6.91-4l3.68-2.11a3.14,3.14,0,0,0,3.23,2.18c1.35,0,2.27-.47,2.27-1.44,0-2.45-8.49-1.11-8.49-7,0-3.41,2.86-5.32,6.25-5.32a6.91,6.91,0,0,1,6.25,3.55l-3.62,2a2.78,2.78,0,0,0-2.63-1.71c-1,0-1.91.47-1.91,1.37C364.8,158.92,373.29,157.38,373.29,163.55Z" transform="translate(-145 -61)" fill="none"></path></clipPath><clipPath id="u"><path d="M381.11,155.84v7c0,1.81,1.29,1.84,3.72,1.71v3.92c-5.95.67-8-1.11-8-5.63v-7H374v-4.16h2.86V148.3l4.24-1.31v4.69h3.72v4.16Z" transform="translate(-145 -61)" fill="none"></path></clipPath><clipPath id="w"><path d="M252.05,105c1.29-7.92-.17-14.33-4.35-19.06-7.13-8.06-19.88-8.53-23.82-8.47a25.51,25.51,0,0,0-12.38-9.9,27.93,27.93,0,0,0-15.24-1c-10.84,2.2-19.83,9.73-22,18.2a33.06,33.06,0,0,0-17.7,12.3c-4.62,6.18-7,13.54-6.54,20.2a20,20,0,0,0,6.47,13.7c4.06,3.69,9.73,5.94,16.87,6.68,3.26,6.85,9.47,10.05,19.35,10.05v-4c-8.83,0-13.69-2.6-16.18-8.7l-.46-1.13-1.21-.1c-12.61-1-20.23-7.13-20.9-16.8-.39-5.73,1.71-12.12,5.76-17.54a28.82,28.82,0,0,1,16.65-11.12l1.3-.29.22-1.32c1.21-7.31,9.43-14.3,19.11-16.26,4.74-1,16.59-1.9,24.12,10.08l.63,1,1.17-.08c.15,0,14.77-.85,21.79,7.12,3.47,3.93,4.57,9.49,3.26,16.52l-.16.84.5.69c5.16,7.16,7,13.21,4.57,18C250,130.31,239.41,136,223.15,136v4c12,0,28.21-3.54,33.29-13.52C259.51,120.43,257.73,113.23,252.05,105Z" transform="translate(-145 -61)" fill="none"></path></clipPath><clipPath id="y"><path d="M204.38,82.14a1.75,1.75,0,1,1-1.241.516,1.76,1.76,0,0,1,1.241-.516Zm-32,41.22a1.76,1.76,0,1,1,1.75-1.76,1.76,1.76,0,0,1-1.75,1.76Zm13.45-13.68a1.75,1.75,0,1,1-1.241.516,1.76,1.76,0,0,1,1.241-.516Zm-9.05-7.83a1.75,1.75,0,1,1,1.241-.516,1.76,1.76,0,0,1-1.241.516Zm13.41-12.67a1.76,1.76,0,1,1-1.75,1.76,1.76,1.76,0,0,1,1.75-1.76Zm25.74,3.08A1.76,1.76,0,1,1,214.17,94a1.76,1.76,0,0,1,1.76-1.74Zm0,19.53a1.76,1.76,0,1,1,1.75-1.76,1.76,1.76,0,0,1-1.75,1.76ZM228.46,102a1.76,1.76,0,1,1-1.75,1.76,1.76,1.76,0,0,1,1.75-1.76ZM242,114.69a1.76,1.76,0,1,1-1.76,1.76,1.76,1.76,0,0,1,1.76-1.76Zm-35.65,32.62L216,139.9V128.29l13.2-9.89h7.43a5.73,5.73,0,1,0,0-4h-6.14v-5.28a5.71,5.71,0,1,0-4,.07v6.2l-14.52,10.88v11.65l-5.69,4.37V119.52l6.43-4.71a5.64,5.64,0,0,0,3.14,1,5.73,5.73,0,0,0,2-11.1V99.39a5.71,5.71,0,1,0-4,0v5.27a5.72,5.72,0,0,0-3.73,5.37,6,6,0,0,0,.22,1.59l-4.08,3V89.27a5.71,5.71,0,1,0-4,0v17.29l-10.23-7.49V96.31a5.71,5.71,0,1,0-4,0v1.8h-6.08a5.74,5.74,0,1,0,0,4h7.43l12.84,9.39v24.64l-6.05-4.68v-5.05l-8.54-5.83v-3.74a5.71,5.71,0,1,0-4,0v2.8H177.5a5.74,5.74,0,1,0,0,4H185l7.17,4.9v4.91l10,7.73v23.71h-9.65v4H216v-4h-9.65Z" transform="translate(-145 -61)" fill="none"></path></clipPath></defs><g transform="translate(-4.964 -4.948)"><g clip-path="url(#a)"><g clip-path="url(#b)"><rect width="27.59" height="33.93" transform="translate(73.19 78.98)" fill="#fff"></rect></g></g><g clip-path="url(#c)"><g clip-path="url(#b)"><rect width="19.24" height="27.09" transform="translate(93.68 85.35)" fill="#fff"></rect></g></g><g clip-path="url(#e)"><g clip-path="url(#b)"><rect width="27.59" height="27.69" transform="translate(103.81 85.22)" fill="#fff"></rect></g></g><g clip-path="url(#g)"><g clip-path="url(#b)"><rect width="15.23" height="34.09" transform="translate(124.66 78.35)" fill="#fff"></rect></g></g><g clip-path="url(#i)"><g clip-path="url(#b)"><rect width="25.36" height="27.22" transform="translate(133.18 85.22)" fill="#fff"></rect></g></g><g clip-path="url(#k)"><g clip-path="url(#b)"><rect width="20.1" height="33.95" transform="translate(150.8 78.49)" fill="#fff"></rect></g></g><g clip-path="url(#m)"><g clip-path="url(#b)"><rect width="27.4" height="27.69" transform="translate(161.26 85.22)" fill="#fff"></rect></g></g><g clip-path="url(#o)"><g clip-path="url(#b)"><rect width="19.24" height="27.09" transform="translate(181.55 85.35)" fill="#fff"></rect></g></g><g clip-path="url(#q)"><g clip-path="url(#b)"><rect width="27" height="27.69" transform="translate(191.68 85.22)" fill="#fff"></rect></g></g><g clip-path="url(#s)"><g clip-path="url(#b)"><rect width="23.52" height="27.69" transform="translate(209.77 85.22)" fill="#fff"></rect></g></g><g clip-path="url(#u)"><g clip-path="url(#b)"><rect width="20.82" height="31.59" transform="translate(224.01 80.99)" fill="#fff"></rect></g></g><g clip-path="url(#w)"><g clip-path="url(#b)"><rect width="117.93" height="91.74" fill="#fff"></rect></g></g><g clip-path="url(#y)"><g clip-path="url(#b)"><rect width="91.05" height="100.64" transform="translate(16.67 12.17)" fill="#fff"></rect></g></g></g></svg> 